<?xml version="1.0" encoding="UTF-8" standalone="no"?>
<!-- Created with Inkscape (http://www.inkscape.org/) -->

<svg
   xmlns:dc="http://purl.org/dc/elements/1.1/"
   xmlns:cc="http://creativecommons.org/ns#"
   xmlns:rdf="http://www.w3.org/1999/02/22-rdf-syntax-ns#"
   xmlns:svg="http://www.w3.org/2000/svg"
   xmlns="http://www.w3.org/2000/svg"
   xmlns:sodipodi="http://sodipodi.sourceforge.net/DTD/sodipodi-0.dtd"
   xmlns:inkscape="http://www.inkscape.org/namespaces/inkscape"
   width="73"
   height="73"
   viewBox="0 0 19.314585 19.314583"
   version="1.1"
   id="svg6646"
   inkscape:version="0.92.5 (2060ec1f9f, 2020-04-08)"
   sodipodi:docname="ic_launcher_round.svg">
  <defs
     id="defs6640" />
  <sodipodi:namedview
     id="base"
     pagecolor="#ffffff"
     bordercolor="#666666"
     borderopacity="1.0"
     inkscape:pageopacity="0.0"
     inkscape:pageshadow="2"
     inkscape:zoom="9.5238443"
     inkscape:cx="58.39075"
     inkscape:cy="31.223425"
     inkscape:document-units="mm"
     inkscape:current-layer="layer2"
     showgrid="true"
     inkscape:measure-start="0,0"
     inkscape:measure-end="0,0"
     inkscape:window-width="1856"
     inkscape:window-height="1016"
     inkscape:window-x="64"
     inkscape:window-y="27"
     inkscape:window-maximized="1"
     gridtolerance="1"
     guidetolerance="1"
     objecttolerance="1"
     showguides="true"
     fit-margin-top="0"
     fit-margin-left="0"
     fit-margin-right="0"
     fit-margin-bottom="0"
     units="px">
    <inkscape:grid
       type="xygrid"
       id="grid8446"
       spacingx="1.9999999"
       spacingy="1.9999999"
       empcolor="#ff3fff"
       empopacity="0.25098039"
       units="mm"
       enabled="true"
       visible="false"
       originx="18.885184"
       originy="397.70621" />
  </sodipodi:namedview>
  <metadata
     id="metadata6643">
    <rdf:RDF>
      <cc:Work
         rdf:about="">
        <dc:format>image/svg+xml</dc:format>
        <dc:type
           rdf:resource="http://purl.org/dc/dcmitype/StillImage" />
        <dc:title></dc:title>
        <dc:description>units_per_metre:1</dc:description>
      </cc:Work>
    </rdf:RDF>
  </metadata>
  <g
     inkscape:label="Layer 1"
     inkscape:groupmode="layer"
     id="layer1"
     transform="translate(18.885173,-675.39178)"
     style="display:inline" />
  <g
     inkscape:groupmode="layer"
     id="layer2"
     inkscape:label="Contours"
     style="display:inline"
     transform="translate(18.885173,-1219.3918)">
    <circle
       style="display:inline;opacity:1;fill:none;fill-opacity:1;fill-rule:nonzero;stroke:#000000;stroke-width:0.26458332;stroke-linecap:round;stroke-miterlimit:4;stroke-dasharray:none;stroke-dashoffset:0;stroke-opacity:1"
       id="path12206-5"
       cx="-28.817694"
       cy="1229.9625"
       r="0" />
    <circle
       style="display:inline;opacity:1;fill:none;fill-opacity:1;fill-rule:nonzero;stroke:#000000;stroke-width:0.26458332;stroke-linecap:round;stroke-miterlimit:4;stroke-dasharray:none;stroke-dashoffset:0;stroke-opacity:1"
       id="path12206-7"
       cx="-28.817694"
       cy="1229.9625"
       r="0" />
    <path
       style="fill:#0053bb;fill-opacity:0.13733903;fill-rule:evenodd;stroke:none;stroke-width:0.19082873px;stroke-linecap:butt;stroke-linejoin:miter;stroke-opacity:1"
       d="M 2.3945312 25.146484 A 35.999999 35.999999 0 0 0 0.5390625 36.460938 A 35.999999 35.999999 0 0 0 36.539062 72.460938 A 35.999999 35.999999 0 0 0 70.384766 48.59375 C 69.982271 48.502954 69.580354 48.43165 69.169922 48.474609 C 65.840563 48.81968 63.666003 49.525421 60.363281 49.351562 C 58.622038 49.260098 56.974597 50.854346 55.310547 50.25 C 54.167504 49.835008 52.525538 51.847106 51.464844 51.271484 C 49.358275 50.127421 48.114116 53.252529 46.349609 49.634766 C 44.975124 46.81675 47.391627 47.238047 46.072266 45.332031 C 44.687432 43.334551 39.37776 44.138212 38.958984 45.371094 C 38.045616 48.060228 36.612068 49.623801 34.251953 47.28125 C 31.777096 44.824935 30.423919 50.732086 34.492188 50.955078 C 37.627158 51.127803 36.221011 58.225808 33.648438 58.902344 C 32.578393 59.183919 30.474964 59.891892 28.726562 59.929688 L 28.726562 59.931641 C 27.183869 59.964523 25.918718 59.476418 25.882812 57.712891 C 25.82121 54.675284 24.83133 53.297123 26.294922 50.275391 C 27.226693 48.351611 29.706184 42.487184 26.003906 43.013672 C 21.347154 43.675467 21.918481 38.675368 20.953125 35.820312 C 20.174792 33.51858 20.020648 26.515204 16.46875 28.623047 C 13.401104 30.443645 15.914674 35.918028 11.697266 35.232422 C 7.7860971 34.596705 10.001287 30.582981 10.410156 27.605469 C 10.992597 23.364083 4.4206648 33.250329 5.484375 28.658203 C 6.2289212 25.4437 4.0628259 26.099317 2.3945312 25.146484 z "
       transform="matrix(0.26458333,0,0,0.26458333,-18.885173,1219.3918)"
       id="path12344" />
    <path
       style="fill:#0053bb;fill-opacity:0.13733903;fill-rule:evenodd;stroke:none;stroke-width:0.19082873px;stroke-linecap:butt;stroke-linejoin:miter;stroke-opacity:1"
       d="M 70.740234 25.59375 C 68.313324 26.707339 66.560715 28.871001 63.347656 29.261719 C 59.687252 29.707325 54.35038 27.791124 52.509766 31.697266 C 50.468832 36.028982 47.301668 36.229701 43.625 35.169922 C 39.696657 34.037197 36.825429 38.044984 33.970703 35.705078 C 31.45 33.63881 31.858384 31.246085 27.949219 30.197266 C 25.14789 29.44514 19.391834 27.104431 20.826172 32.28125 C 21.636756 35.206604 21.661053 38.273846 24.476562 40.103516 C 27.366805 41.981185 29.648606 43.88537 28.972656 47.748047 C 28.328424 51.429685 24.455044 56.269022 27.539062 58.572266 C 29.843127 60.293085 35.979447 56.724459 35.087891 53.259766 C 34.549535 51.167419 28.529615 50.9891 31.570312 47.320312 C 33.964091 44.432375 36.932813 44.10246 40.0625 43.185547 C 43.741401 42.108382 47.664346 44.367546 50.117188 46.929688 C 52.809167 49.741278 56.375156 48.135512 59.521484 47.75 C 63.055108 47.318647 67.076146 48.100696 70.783203 47.675781 A 35.999999 35.999999 0 0 0 72.5 37.242188 L 72.5 35.826172 A 35.999999 35.999999 0 0 0 70.740234 25.59375 z "
       transform="matrix(0.26458333,0,0,0.26458333,-18.885173,1219.3918)"
       id="path12350" />
    <path
       style="fill:#0053bb;fill-opacity:0.13733903;fill-rule:evenodd;stroke:none;stroke-width:0.19082873px;stroke-linecap:butt;stroke-linejoin:miter;stroke-opacity:1"
       d="M 36.455078 0.61914062 A 35.999999 35.999999 0 0 0 22.496094 3.4746094 C 24.819399 6.4332352 22.923224 9.8685509 20.660156 11.775391 C 18.52029 13.578225 20.57246 14.802273 19.972656 16.361328 C 18.823275 19.348667 17.847863 22.077487 21.960938 23.037109 C 24.263607 23.57418 25.86739 25.703783 27.560547 27.517578 C 29.565889 29.665484 34.87686 27.9041 33.919922 32.861328 C 33.095233 37.133706 39.57212 33.715626 42.039062 33.855469 C 44.803677 34.010807 47.946958 36.585855 49.244141 32.482422 C 50.115507 29.726012 54.319216 27.453811 57.197266 27.416016 C 60.207085 27.376331 65.145798 28.987321 66.716797 25.90625 C 67.421629 24.523913 68.447075 23.507925 69.580078 22.615234 A 35.999999 35.999999 0 0 0 36.455078 0.61914062 z "
       transform="matrix(0.26458333,0,0,0.26458333,-18.885173,1219.3918)"
       id="path12348" />
    <path
       style="fill:#0053bb;fill-opacity:0.13733903;fill-rule:evenodd;stroke:none;stroke-width:0.19082873px;stroke-linecap:butt;stroke-linejoin:miter;stroke-opacity:1"
       d="M 9.5273438 12.695312 A 35.999999 35.999999 0 0 0 4.4882812 19.976562 C 4.2960294 21.772472 4.358013 23.283752 6.4121094 23.353516 L 6.4121094 23.355469 C 6.6791859 23.363028 6.980205 23.348215 7.3183594 23.306641 C 8.3876822 23.173601 9.3634633 22.643483 10.306641 22.099609 C 12.635287 20.756743 15.467154 19.452942 15.421875 16.150391 C 15.367802 12.204885 12.356629 13.118216 9.5273438 12.695312 z "
       transform="matrix(0.26458333,0,0,0.26458333,-18.885173,1219.3918)"
       id="path12104" />
    <path
       style="fill:#0053bb;fill-opacity:0.13733903;fill-rule:evenodd;stroke:none;stroke-width:0.0504901px;stroke-linecap:butt;stroke-linejoin:miter;stroke-opacity:1"
       d="m -6.359048,1233.6638 c 0.0061,0.2054 1.453751,-0.021 1.392494,-0.3933 -0.0404,-0.2455 -1.407309,-0.1015 -1.392494,0.3933 z"
       id="path12096"
       inkscape:connector-curvature="0"
       sodipodi:nodetypes="sss" />
    <path
       style="fill:#0053bb;fill-opacity:0.13733903;fill-rule:evenodd;stroke:none;stroke-width:0.0504901px;stroke-linecap:butt;stroke-linejoin:miter;stroke-opacity:1"
       d="m -9.744381,1232.612 c 0.672588,-0.4568 -0.780682,-0.7727 -0.466802,-0.2545 0.136005,0.1354 0.338347,0.3401 0.466802,0.2545 z"
       id="path12092"
       inkscape:connector-curvature="0"
       sodipodi:nodetypes="ccc" />
    <path
       style="fill:#0053bb;fill-opacity:0.13733903;fill-rule:evenodd;stroke:none;stroke-width:0.19082873px;stroke-linecap:butt;stroke-linejoin:miter;stroke-opacity:1"
       d="M 72.361328 36.841797 C 70.086305 37.916296 70.039554 40.823241 68.578125 42.789062 C 67.29747 44.511771 63.495443 46.435142 67.525391 46.958984 C 68.656046 47.105412 69.781024 46.972214 70.880859 46.685547 A 35.999999 35.999999 0 0 0 72.361328 36.841797 z "
       transform="matrix(0.26458333,0,0,0.26458333,-18.885173,1219.3918)"
       id="path12088" />
    <path
       inkscape:connector-curvature="0"
       style="fill:#0053bb;fill-opacity:0.13733903;fill-rule:evenodd;stroke:none;stroke-width:0.0504901px;stroke-linecap:butt;stroke-linejoin:miter;stroke-opacity:1"
       d="m -3.686948,1231.7291 c 0.807013,0.01 1.886745,-0.7807 2.036173,-1.5856 0.197835,-1.0657 1.757666,-1.0048 1.53815,-1.9942 -0.208302,-0.9388 -1.526163,-0.8182 -2.296033,-0.7171 -0.856713,0.1125 -1.886039,-0.4675 -2.268515,0.551 -0.239405,0.6375 -0.915183,1.4381 -1.878682,1.1653 -1.042353,-0.2951 -1.509954,0.04 -2.5479,0.1207 -0.640266,0.05 -1.07943,1.1505 -0.739736,1.5092 0.461396,0.4873 1.517266,-0.2342 2.266742,-0.25 0.810154,-0.017 1.462522,0.2502 2.32897,0.3447 0.586628,0.064 0.898586,0.8063 1.483613,0.8526 h 0.07722 z"
       id="path12358" />
    <path
       inkscape:connector-curvature="0"
       style="fill:#0053bb;fill-opacity:0.13733903;fill-rule:evenodd;stroke:none;stroke-width:0.0504901px;stroke-linecap:butt;stroke-linejoin:miter;stroke-opacity:1"
       d="m -3.554996,1230.8151 c -0.135022,0 -0.264955,-0.01 -0.383627,-0.037 -0.786705,-0.1812 -1.5627,-0.2205 -2.311807,-0.4814 -0.811613,-0.2826 -1.656843,-0.065 -2.445441,0.1553 -0.938091,0.2627 -0.813733,-0.6324 -0.0925,-0.7567 1.074764,-0.1852 2.147575,-0.3155 3.230342,-0.3439 0.93744,-0.025 0.845291,-1.1083 1.654712,-1.3275 0.826998,-0.2239 1.885089,-0.4028 2.590309,0.06 0.52123,0.3425 -0.52336,0.9107 -0.57662,1.5619 -0.05841,0.7141 -0.936258,1.1536 -1.665366,1.1683 z"
       id="path12086" />
    <path
       inkscape:connector-curvature="0"
       style="fill:#0053bb;fill-opacity:0.13733903;fill-rule:evenodd;stroke:none;stroke-width:0.0504901px;stroke-linecap:butt;stroke-linejoin:miter;stroke-opacity:1"
       d="m -10.798017,1231.0001 c 0.04922,0 0.102328,-0.016 0.160354,-0.05 0.758938,-0.4486 0.380951,-1.8357 0.08284,-2.6074 -0.247303,-0.6402 -1.518741,-0.5086 -2.158951,-0.1877 -0.94567,0.4739 0.403688,1.5487 1.084606,1.925 0.331685,0.1833 0.486622,0.9221 0.831153,0.9201 z"
       id="path12366" />
    <path
       inkscape:connector-curvature="0"
       style="fill:#0053bb;fill-opacity:0.13733903;fill-rule:evenodd;stroke:none;stroke-width:0.0504901px;stroke-linecap:butt;stroke-linejoin:miter;stroke-opacity:1"
       d="m -11.217636,1230.0004 c -0.576822,0.011 -1.68267,-0.9765 -0.580861,-1.2833 0.987478,-0.2749 1.198971,0.9999 0.739832,1.2462 -0.04532,0.024 -0.0993,0.036 -0.158971,0.037 z"
       id="path12084" />
    <path
       style="fill:#0053bb;fill-opacity:0.13733903;fill-rule:evenodd;stroke:none;stroke-width:0.0504901px;stroke-linecap:butt;stroke-linejoin:miter;stroke-opacity:1"
       d="m -8.667075,1230.1304 c 0.638014,0.043 1.027726,-0.5363 0.188065,-0.2716 -0.209555,0.066 -0.764079,0.2332 -0.188065,0.2716 z"
       id="path12080"
       inkscape:connector-curvature="0"
       sodipodi:nodetypes="sss" />
    <path
       inkscape:connector-curvature="0"
       style="fill:#0053bb;fill-opacity:0.13733903;fill-rule:evenodd;stroke:none;stroke-width:0.0504901px;stroke-linecap:butt;stroke-linejoin:miter;stroke-opacity:1"
       d="m -3.903319,1230.0976 c 0.888286,-0.019 2.123122,-0.6407 1.42277,-1.4747 -0.880712,-1.0488 -1.692824,0.6125 -2.542281,0.9844 -1.100859,0.4819 0.699822,0.4671 0.94713,0.4859 0.05546,0 0.113164,0.01 0.172381,0 z"
       id="path12354" />
    <path
       inkscape:connector-curvature="0"
       style="fill:#0053bb;fill-opacity:0.13733903;fill-rule:evenodd;stroke:none;stroke-width:0.0504901px;stroke-linecap:butt;stroke-linejoin:miter;stroke-opacity:1"
       d="m -3.549871,1229.6052 c -0.369303,0 -0.721736,-0.2174 -0.117451,-0.5042 0.449647,-0.2134 1.066969,0.2418 0.364294,0.4689 -0.07546,0.024 -0.161616,0.036 -0.246843,0.035 z"
       id="path12078" />
    <path
       style="fill:#0053bb;fill-opacity:0.13733903;fill-rule:evenodd;stroke:none;stroke-width:0.19082873px;stroke-linecap:butt;stroke-linejoin:miter;stroke-opacity:1"
       d="M 35.978516 0.546875 A 35.999999 35.999999 0 0 0 25.017578 2.4648438 C 25.337942 2.9752609 25.579474 3.5093564 25.611328 4.0800781 C 25.806881 7.5829443 26.486278 10.9018 26 14.357422 C 25.589789 17.272571 24.393615 22.694891 29.394531 21.796875 C 32.330721 21.269631 35.543759 21.785555 37.771484 23.894531 C 39.557871 25.585492 42.874467 28.407044 44.623047 24.609375 C 45.896967 21.842761 48.921239 19.42977 52.048828 19.199219 C 55.617443 18.936164 58.941635 18.149728 62.052734 16.3125 C 63.059292 15.718156 64.139654 15.272717 65.248047 14.876953 A 35.999999 35.999999 0 0 0 36.957031 0.54882812 L 35.978516 0.546875 z "
       transform="matrix(0.26458333,0,0,0.26458333,-18.885173,1219.3918)"
       id="path12380" />
    <path
       style="fill:#0053bb;fill-opacity:0.13733903;fill-rule:evenodd;stroke:none;stroke-width:0.19082873px;stroke-linecap:butt;stroke-linejoin:miter;stroke-opacity:1"
       d="M 36.529297 0.54492188 A 35.999999 35.999999 0 0 0 23.699219 2.9199219 C 24.658348 5.4265839 24.573488 8.3132143 23.890625 10.929688 C 23.005339 14.321813 22.148259 18.491951 24.048828 21.572266 C 25.846855 24.486281 29.798959 25.361105 33.009766 26.181641 C 36.519987 27.078523 39.228048 31.744337 43.146484 30.119141 C 46.278658 28.819739 49.672481 28.59692 52.578125 26.699219 C 55.702347 24.65903 59.267955 23.581516 62.236328 21.189453 C 63.800706 19.928695 65.559026 18.945295 67.380859 18.068359 A 35.999999 35.999999 0 0 0 36.529297 0.54492188 z "
       transform="matrix(0.26458333,0,0,0.26458333,-18.885173,1219.3918)"
       id="path12072" />
    <path
       style="fill:#0053bb;fill-opacity:0.13733903;fill-rule:evenodd;stroke:none;stroke-width:0.19082873px;stroke-linecap:butt;stroke-linejoin:miter;stroke-opacity:1"
       d="M 34.603516 0.5390625 A 35.999999 35.999999 0 0 0 28.523438 1.4179688 C 29.428089 3.9504301 30.808547 6.1964312 32.623047 8.2011719 C 35.054436 10.887282 40.732116 11.857286 43.888672 9.8027344 C 47.669874 7.3413997 51.273376 6.2177775 55.292969 5.8007812 A 35.999999 35.999999 0 0 0 38.007812 0.54492188 L 34.603516 0.5390625 z "
       transform="matrix(0.26458333,0,0,0.26458333,-18.885173,1219.3918)"
       id="path12372" />
    <path
       style="fill:#0053bb;fill-opacity:0.13733903;fill-rule:evenodd;stroke:none;stroke-width:0.19082873px;stroke-linecap:butt;stroke-linejoin:miter;stroke-opacity:1"
       d="M 36.529297 0.69335938 A 35.999999 35.999999 0 0 0 27.419922 1.8886719 C 28.632359 3.9006712 28.982871 6.3565901 28.097656 8.609375 C 26.271468 13.256304 32.860848 11.332218 35.398438 11.652344 C 36.453542 11.784627 37.520436 11.849102 38.576172 11.833984 C 40.898763 11.796189 43.170538 11.391405 45.166016 10.517578 C 48.581235 9.0212632 51.474845 7.4772147 55.392578 7.9277344 C 56.44873 8.0492123 57.465669 8.1338806 58.470703 8.2089844 A 35.999999 35.999999 0 0 0 36.529297 0.69335938 z "
       transform="matrix(0.26458333,0,0,0.26458333,-18.885173,1219.3918)"
       id="path12370" />
    <path
       inkscape:connector-curvature="0"
       style="fill:#0053bb;fill-opacity:0.13733903;fill-rule:evenodd;stroke:none;stroke-width:0.0504901px;stroke-linecap:butt;stroke-linejoin:miter;stroke-opacity:1"
       d="m -10.7706,1222.2689 c -0.666588,-0.018 -0.303127,-1.2046 0.30907,-0.6031 0.283531,0.2786 0.502204,0.4042 -0.06825,0.568 -0.09187,0.026 -0.171866,0.037 -0.240824,0.035 z"
       id="path12066" />
    <path
       style="fill:#0053bb;fill-opacity:0.13733903;fill-rule:evenodd;stroke:none;stroke-width:0.19082873px;stroke-linecap:butt;stroke-linejoin:miter;stroke-opacity:1"
       d="M 36.677734 0.61914062 A 35.999999 35.999999 0 0 0 33.546875 0.77929688 C 33.749688 1.5932543 34.824923 6.820482 38.962891 7.9902344 C 42.383031 8.9571103 45.252777 5.3478989 47.681641 2.359375 A 35.999999 35.999999 0 0 0 36.677734 0.61914062 z "
       transform="matrix(0.26458333,0,0,0.26458333,-18.885173,1219.3918)"
       id="path12376" />
    <path
       style="fill:#0053bb;fill-opacity:0.13733903;fill-rule:evenodd;stroke:none;stroke-width:0.19082873px;stroke-linecap:butt;stroke-linejoin:miter;stroke-opacity:1"
       d="M 36.603516 0.54492188 A 35.999999 35.999999 0 0 0 30.634766 1.0507812 C 32.088308 3.6866216 32.648895 6.4804145 35.648438 8.3476562 C 38.514593 10.132349 41.722422 10.526215 44.341797 8.2207031 C 46.373806 6.432566 48.571739 4.7891953 50.980469 3.5605469 A 35.999999 35.999999 0 0 0 36.603516 0.54492188 z "
       transform="matrix(0.26458333,0,0,0.26458333,-18.885173,1219.3918)"
       id="path12062" />
    <path
       style="fill:#0053bb;fill-opacity:0.13733903;fill-rule:evenodd;stroke:none;stroke-width:0.19082873px;stroke-linecap:butt;stroke-linejoin:miter;stroke-opacity:1"
       d="M 36.392578 0.52734375 C 37.965905 2.3505878 36.905255 7.6947817 40.248047 6.8867188 C 42.736855 6.2849735 43.351876 3.5667127 44.488281 1.4511719 A 35.999999 35.999999 0 0 0 37.439453 0.52734375 L 36.392578 0.52734375 z "
       transform="matrix(0.26458333,0,0,0.26458333,-18.885173,1219.3918)"
       id="path4473" />
    <path
       inkscape:connector-curvature="0"
       style="fill:#0053bb;fill-opacity:0.13733903;fill-rule:evenodd;stroke:none;stroke-width:0.0504901px;stroke-linecap:butt;stroke-linejoin:miter;stroke-opacity:1"
       d="m -11.332431,1234.6585 c 0.583674,-0.013 2.052068,-0.4965 1.453636,-1.1838 -0.607431,-0.6976 -1.67811,-0.1471 -1.606199,0.7854 0.0096,0.1242 0.02823,0.4012 0.152563,0.3984 z"
       id="path12362" />
    <path
       inkscape:connector-curvature="0"
       style="fill:#0053bb;fill-opacity:0.13733903;fill-rule:evenodd;stroke:none;stroke-width:0.0504901px;stroke-linecap:butt;stroke-linejoin:miter;stroke-opacity:1"
       d="m -11.071586,1234.2339 c -0.391979,0.037 1.215209,-1.1021 0.913304,-0.3603 -0.03554,0.087 -0.198294,0.1982 -0.240233,0.2206 -0.04202,0.022 -0.482931,0.087 -0.482931,0.087 -0.08766,0.033 -0.14959,0.049 -0.19014,0.053 z"
       id="path12098" />
    <path
       style="fill:#0053bb;fill-opacity:0.13733903;fill-rule:evenodd;stroke:none;stroke-width:0.19082873px;stroke-linecap:butt;stroke-linejoin:miter;stroke-opacity:1"
       d="M 1.6601562 27.582031 A 35.999999 35.999999 0 0 0 0.5 36.279297 L 0.5 36.845703 A 35.999999 35.999999 0 0 0 36.390625 72.507812 L 36.621094 72.509766 A 35.999999 35.999999 0 0 0 69.027344 51.810547 C 67.577696 51.973685 66.111134 52.110854 64.744141 52.759766 C 62.443304 53.852427 60.920166 52.960416 58.080078 53.201172 C 54.741338 53.480857 50.744793 55.387814 47.498047 55.851562 C 44.060268 56.342523 42.821292 56.133925 43.324219 52.019531 C 43.492181 50.645673 42.567689 49.461373 43.441406 48.763672 C 44.792508 47.684995 45.259998 45.592978 42.546875 45.173828 C 40.102004 44.795875 37.205357 49.475218 37.347656 52.359375 C 37.480507 55.052288 35.684741 60.20008 32.779297 60.423828 C 30.217197 60.620364 29.11231 63.374929 27.099609 61.333984 C 24.47099 58.668284 24.016422 53.707601 25.068359 50.054688 C 25.939268 47.030688 24.032301 46.557821 21.775391 45.136719 C 18.918521 43.33842 20.293032 37.876956 19.416016 34.556641 C 18.836179 29.747948 15.816603 29.653186 14.996094 34.443359 C 14.603684 36.733753 14.641064 40.741139 11.175781 37.529297 C 9.1566556 35.658053 7.8205804 33.236925 5.7578125 32.730469 C 2.4776639 31.925023 2.3797613 29.692246 1.6601562 27.582031 z "
       transform="matrix(0.26458333,0,0,0.26458333,-18.885173,1219.3918)"
       id="path12340" />
    <path
       style="fill:#0053bb;fill-opacity:0.13733903;fill-rule:evenodd;stroke:none;stroke-width:0.19082873px;stroke-linecap:butt;stroke-linejoin:miter;stroke-opacity:1"
       d="M 0.7265625 31.826172 A 35.999999 35.999999 0 0 0 0.5 34.167969 L 0.5 39.283203 A 35.999999 35.999999 0 0 0 36.382812 72.511719 A 35.999999 35.999999 0 0 0 68.160156 53.386719 C 66.96592 53.675342 65.77749 54.002934 64.601562 54.404297 C 62.216673 55.219919 59.763611 55.182409 57.113281 54.914062 C 53.835709 54.58222 51.349295 56.579183 48.177734 56.84375 C 46.083392 57.017608 40.734088 57.878623 41.521484 54.712891 C 41.942002 53.02193 42.276612 48.2556 40.060547 51.21875 C 38.585227 53.191663 37.697294 56.810568 36.673828 58.919922 C 35.697002 60.932898 34.90799 60.73698 33.013672 61.851562 C 31.005333 63.033043 25.951967 64.690486 24.779297 60.154297 C 23.879762 56.674864 22.368103 55.021303 23.259766 50.728516 C 23.994426 47.192012 21.965961 48.096043 20.46875 47.558594 C 15.647607 45.827192 18.96098 41.789578 18.652344 38.181641 C 18.489711 36.280538 19.437999 31.821041 16.263672 34.009766 C 13.794159 35.712821 17.658573 43.247014 13.955078 41.783203 C 10.973386 40.604746 9.4662302 36.939114 6.7480469 35.146484 C 4.7754953 33.845699 2.6568358 33.150519 0.7265625 31.826172 z "
       transform="matrix(0.26458333,0,0,0.26458333,-18.885173,1219.3918)"
       id="path12106" />
    <path
       style="fill:#0053bb;fill-opacity:0.13733903;fill-rule:evenodd;stroke:none;stroke-width:0.19082873px;stroke-linecap:butt;stroke-linejoin:miter;stroke-opacity:1"
       d="M 0.63867188 33.519531 A 35.999999 35.999999 0 0 0 0.5 36.277344 L 0.5 36.84375 A 35.999999 35.999999 0 0 0 36.488281 72.511719 A 35.999999 35.999999 0 0 0 67.615234 54.53125 C 66.774101 54.792524 65.952249 55.137691 65.158203 55.582031 C 62.834625 56.880677 59.958257 55.539548 57.402344 56.439453 C 55.435716 57.132996 53.408921 56.557687 51.394531 57.427734 C 49.157134 58.391892 48.031253 57.322026 45.5625 57.722656 C 42.896055 58.156546 40.528066 56.771327 40.285156 54.273438 C 40.032192 51.671989 38.237021 55.742671 38.060547 56.96875 C 37.610995 60.091774 34.978403 61.668439 32.65625 62.824219 C 29.897199 64.197699 26.727044 65.966868 24.410156 62.345703 C 22.467135 59.308475 21.859296 55.608191 20.449219 52.345703 C 19.035872 49.076034 16.165799 46.110985 13.740234 43.630859 C 11.845584 41.693852 10.253364 39.599219 7.8378906 38.201172 C 5.4808145 36.837105 3.5534983 33.629704 0.63867188 33.519531 z "
       transform="matrix(0.26458333,0,0,0.26458333,-18.885173,1219.3918)"
       id="path12112" />
    <path
       style="fill:#0053bb;fill-opacity:0.13733903;fill-rule:evenodd;stroke:none;stroke-width:0.19082873px;stroke-linecap:butt;stroke-linejoin:miter;stroke-opacity:1"
       d="M 0.5078125 35.027344 A 35.999999 35.999999 0 0 0 0.5 35.171875 L 0.5 38.287109 A 35.999999 35.999999 0 0 0 36.435547 72.460938 A 35.999999 35.999999 0 0 0 66.447266 56.294922 C 63.879399 57.550968 60.632886 56.860754 57.90625 57.179688 C 54.535085 57.573514 51.354249 58.683519 47.962891 58.623047 C 44.906273 58.568244 42.86747 58.994265 39.869141 56.318359 C 38.140218 54.775556 38.26885 60.830465 35.396484 61.878906 C 32.062548 63.095914 27.383622 67.931424 24.423828 64.453125 C 21.602725 61.137345 21.020196 56.4629 19.246094 52.513672 C 17.045354 47.615404 12.910071 43.880829 8.953125 40.384766 C 6.4746328 38.195106 3.9360971 35.521704 0.5078125 35.027344 z "
       transform="matrix(0.26458333,0,0,0.26458333,-18.885173,1219.3918)"
       id="path12320" />
    <path
       style="fill:#0053bb;fill-opacity:0.13733903;fill-rule:evenodd;stroke:none;stroke-width:0.19082873px;stroke-linecap:butt;stroke-linejoin:miter;stroke-opacity:1"
       d="M 0.5 36.445312 L 0.5 36.740234 A 35.999999 35.999999 0 0 0 36.488281 72.408203 A 35.999999 35.999999 0 0 0 65.701172 57.390625 C 65.129205 57.565244 64.546242 57.720308 63.931641 57.794922 C 60.742831 58.182323 57.846561 58.751606 54.738281 58.916016 C 51.464534 59.089874 48.135165 59.384032 44.699219 59.501953 C 42.374719 59.581323 40.420662 56.987744 39.144531 57.810547 C 37.379772 58.947807 37.987814 61.668211 36.144531 62.619141 C 33.489836 63.988841 30.822246 66.137308 27.683594 66.585938 C 23.466639 67.188772 22.465948 62.38652 21.228516 59.666016 C 19.34763 55.530457 18.66663 51.124056 15.181641 47.798828 C 11.866228 44.634986 9.1139708 41.292407 5.3222656 38.654297 C 3.8204968 37.609258 2.3409398 36.780935 0.5 36.445312 z "
       transform="matrix(0.26458333,0,0,0.26458333,-18.885173,1219.3918)"
       id="path12316" />
    <path
       style="fill:#0053bb;fill-opacity:0.13733903;fill-rule:evenodd;stroke:none;stroke-width:0.19082873px;stroke-linecap:butt;stroke-linejoin:miter;stroke-opacity:1"
       d="M 0.5 37.910156 L 0.5 38.390625 A 35.999999 35.999999 0 0 0 35.113281 72.498047 L 38.263672 72.5 A 35.999999 35.999999 0 0 0 64.03125 59.671875 C 63.391257 59.764368 62.748259 59.802103 62.097656 59.720703 C 59.396069 59.383569 57.498356 60.966208 55.113281 61.519531 C 52.253362 62.183594 49.589904 61.088979 46.822266 61.179688 C 44.113255 61.266995 41.270108 61.948176 38.976562 63.431641 C 36.937303 64.751074 35.038862 67.074219 32.386719 67.074219 C 29.07995 67.091983 24.082118 68.45136 22.341797 65.113281 C 20.33935 61.272525 19.153906 58.425887 17.78125 54.316406 C 16.403393 50.19143 13.40649 48.578235 10.525391 45.494141 C 7.7413566 42.513605 4.4184214 39.330125 0.5 37.910156 z "
       transform="matrix(0.26458333,0,0,0.26458333,-18.885173,1219.3918)"
       id="path12114" />
    <path
       style="fill:#0053bb;fill-opacity:0.13733903;fill-rule:evenodd;stroke:none;stroke-width:0.0504901px;stroke-linecap:butt;stroke-linejoin:miter;stroke-opacity:1"
       d="m -14.89669,1234.9365 c 1.083244,0.2543 0.717931,-1.2782 0.126377,-1.7298 -0.249004,-0.19 -1.36368,-1.258 -0.817737,-0.3525 0.375201,0.6223 -0.0038,1.9191 0.69136,2.0823 z"
       id="path12102"
       inkscape:connector-curvature="0"
       sodipodi:nodetypes="ssss" />
    <circle
       style="opacity:1;fill:none;fill-opacity:0.0627451;fill-rule:nonzero;stroke:#000000;stroke-width:0.26458332;stroke-linecap:round;stroke-miterlimit:4;stroke-dasharray:none;stroke-dashoffset:0;stroke-opacity:1"
       id="path12206"
       cx="9.2278814"
       cy="-1229.0491"
       r="9.5249996"
       transform="scale(-1)" />
    <circle
       style="display:inline;opacity:1;fill:none;fill-opacity:0.1254902;fill-rule:nonzero;stroke:#000000;stroke-width:0.26458332;stroke-linecap:round;stroke-miterlimit:4;stroke-dasharray:none;stroke-dashoffset:0;stroke-opacity:1"
       id="path12206-52"
       cx="9.2278814"
       cy="-1229.0491"
       r="4.6972604"
       transform="scale(-1)" />
    <circle
       style="display:inline;opacity:1;fill:none;fill-opacity:0.25098039;fill-rule:nonzero;stroke:#000000;stroke-width:0.26458332;stroke-linecap:round;stroke-miterlimit:4;stroke-dasharray:none;stroke-dashoffset:0;stroke-opacity:1"
       id="path12206-52-2"
       cx="9.2278814"
       cy="-1229.0491"
       r="2.3486302"
       transform="scale(-1)" />
    <circle
       style="display:inline;opacity:1;fill:none;fill-opacity:0.49803922;fill-rule:nonzero;stroke:#000000;stroke-width:0.26458332;stroke-linecap:round;stroke-miterlimit:4;stroke-dasharray:none;stroke-dashoffset:0;stroke-opacity:1"
       id="path12206-52-8"
       cx="9.2278814"
       cy="-1229.0491"
       r="1.1743151"
       transform="scale(-1)" />
    <circle
       style="display:inline;opacity:1;fill:none;fill-opacity:1;fill-rule:nonzero;stroke:#000000;stroke-width:0.26458332;stroke-linecap:round;stroke-miterlimit:4;stroke-dasharray:none;stroke-dashoffset:0;stroke-opacity:1"
       id="path12206-52-6"
       cx="9.2278814"
       cy="-1229.0491"
       r="0.52191782"
       transform="scale(-1)" />
  </g>
</svg>
