<?xml version="1.0" encoding="UTF-8" standalone="no"?>
<!-- Created with Inkscape (http://www.inkscape.org/) -->

<svg
   xmlns:dc="http://purl.org/dc/elements/1.1/"
   xmlns:cc="http://creativecommons.org/ns#"
   xmlns:rdf="http://www.w3.org/1999/02/22-rdf-syntax-ns#"
   xmlns="http://www.w3.org/2000/svg"
   xmlns:sodipodi="http://sodipodi.sourceforge.net/DTD/sodipodi-0.dtd"
   xmlns:inkscape="http://www.inkscape.org/namespaces/inkscape"
   width="73"
   height="73"
   viewBox="0 0 19.314585 19.314583"
   version="1.1"
   id="svg6646"
   inkscape:version="0.92.3 (2405546, 2018-03-11)"
   sodipodi:docname="ic_launcher.svg">
  <defs
     id="defs6640" />
  <sodipodi:namedview
     id="base"
     pagecolor="#ffffff"
     bordercolor="#666666"
     borderopacity="1.0"
     inkscape:pageopacity="0.0"
     inkscape:pageshadow="2"
     inkscape:zoom="5.6568542"
     inkscape:cx="12.321789"
     inkscape:cy="36.144013"
     inkscape:document-units="mm"
     inkscape:current-layer="layer2"
     showgrid="true"
     inkscape:measure-start="0,0"
     inkscape:measure-end="0,0"
     inkscape:window-width="1861"
     inkscape:window-height="1028"
     inkscape:window-x="59"
     inkscape:window-y="24"
     inkscape:window-maximized="1"
     gridtolerance="1"
     guidetolerance="1"
     objecttolerance="1"
     showguides="true"
     fit-margin-top="0"
     fit-margin-left="0"
     fit-margin-right="0"
     fit-margin-bottom="0"
     units="px">
    <inkscape:grid
       type="xygrid"
       id="grid8446"
       spacingx="1.9999999"
       spacingy="1.9999999"
       empcolor="#ff3fff"
       empopacity="0.25098039"
       units="mm"
       enabled="true"
       visible="false"
       originx="18.885184"
       originy="397.70621" />
  </sodipodi:namedview>
  <metadata
     id="metadata6643">
    <rdf:RDF>
      <cc:Work
         rdf:about="">
        <dc:format>image/svg+xml</dc:format>
        <dc:type
           rdf:resource="http://purl.org/dc/dcmitype/StillImage" />
        <dc:title></dc:title>
        <dc:description>units_per_metre:1</dc:description>
      </cc:Work>
    </rdf:RDF>
  </metadata>
  <g
     inkscape:label="Layer 1"
     inkscape:groupmode="layer"
     id="layer1"
     transform="translate(18.885173,-675.39178)"
     style="display:inline" />
  <g
     inkscape:groupmode="layer"
     id="layer2"
     inkscape:label="Contours"
     style="display:inline"
     transform="translate(18.885173,-1219.3918)">
    <circle
       style="display:inline;opacity:1;fill:none;fill-opacity:1;fill-rule:nonzero;stroke:#000000;stroke-width:0.26458332;stroke-linecap:round;stroke-miterlimit:4;stroke-dasharray:none;stroke-dashoffset:0;stroke-opacity:1"
       id="path12206-5"
       cx="-28.817694"
       cy="1229.9625"
       r="0" />
    <circle
       style="display:inline;opacity:1;fill:none;fill-opacity:1;fill-rule:nonzero;stroke:#000000;stroke-width:0.26458332;stroke-linecap:round;stroke-miterlimit:4;stroke-dasharray:none;stroke-dashoffset:0;stroke-opacity:1"
       id="path12206-7"
       cx="-28.817694"
       cy="1229.9625"
       r="0" />
    <circle
       style="opacity:1;fill:#000000;fill-opacity:0.0627451;fill-rule:nonzero;stroke:#000000;stroke-width:0.26458332;stroke-linecap:round;stroke-miterlimit:4;stroke-dasharray:none;stroke-dashoffset:0;stroke-opacity:1"
       id="path12206"
       cx="9.2278814"
       cy="-1229.0491"
       r="9.5249996"
       transform="scale(-1)" />
    <circle
       style="display:inline;opacity:1;fill:#000000;fill-opacity:0.1254902;fill-rule:nonzero;stroke:#000000;stroke-width:0.26458332;stroke-linecap:round;stroke-miterlimit:4;stroke-dasharray:none;stroke-dashoffset:0;stroke-opacity:1"
       id="path12206-52"
       cx="9.2278814"
       cy="-1228.8982"
       r="4.6972604"
       transform="scale(-1)" />
    <circle
       style="display:inline;opacity:1;fill:#000000;fill-opacity:0.25098039;fill-rule:nonzero;stroke:#000000;stroke-width:0.26458332;stroke-linecap:round;stroke-miterlimit:4;stroke-dasharray:none;stroke-dashoffset:0;stroke-opacity:1"
       id="path12206-52-2"
       cx="9.2278814"
       cy="-1228.7344"
       r="2.3486302"
       transform="scale(-1)" />
    <circle
       style="display:inline;opacity:1;fill:#000000;fill-opacity:0.49803922;fill-rule:nonzero;stroke:#000000;stroke-width:0.26458332;stroke-linecap:round;stroke-miterlimit:4;stroke-dasharray:none;stroke-dashoffset:0;stroke-opacity:1"
       id="path12206-52-8"
       cx="9.2278814"
       cy="-1228.8497"
       r="1.1743151"
       transform="scale(-1)" />
    <circle
       style="display:inline;opacity:1;fill:#000000;fill-opacity:1;fill-rule:nonzero;stroke:#000000;stroke-width:0.26458332;stroke-linecap:round;stroke-miterlimit:4;stroke-dasharray:none;stroke-dashoffset:0;stroke-opacity:1"
       id="path12206-52-6"
       cx="9.2278814"
       cy="-1228.9392"
       r="0.52191782"
       transform="scale(-1)" />
    <path
       style="fill:#0053bb;fill-opacity:0.13733903;fill-rule:evenodd;stroke:none;stroke-width:0.0504901px;stroke-linecap:butt;stroke-linejoin:miter;stroke-opacity:1"
       d="m -18.752897,1222.5603 c 0.493231,0.4771 0.911799,1.2913 0.623068,1.91 -0.24807,0.5316 -0.697287,1.2003 -0.170705,1.5493 0.446238,0.2959 1.070457,0.073 0.86626,0.9546 -0.28144,1.215 1.457544,-1.4004 1.30344,-0.2782 -0.10818,0.7878 -0.694202,1.8497 0.340628,2.0179 1.115856,0.1814 0.450666,-1.267 1.262314,-1.7487 0.939773,-0.5577 0.980737,1.2953 1.186671,1.9043 0.255417,0.7554 0.104081,2.0781 1.33618,1.903 0.979561,-0.1393 0.323551,1.4121 0.07702,1.9211 -0.387242,0.7995 -0.125373,1.1643 -0.109074,1.968 0.0095,0.4666 0.344486,0.5959 0.752657,0.5872 l 3.6e-5,-8e-4 c 0.462598,-0.01 1.019137,-0.197 1.302253,-0.2715 0.68066,-0.179 1.052735,-2.0572 0.223274,-2.1029 -1.076396,-0.059 -0.718616,-1.622 -0.06381,-0.9721 0.624447,0.6198 1.003641,0.2061 1.245303,-0.5054 0.110801,-0.3262 1.51558,-0.5385 1.881984,-0.01 0.349081,0.5043 -0.290196,0.3924 0.07347,1.138 0.466859,0.9572 0.796272,0.1307 1.353635,0.4334 0.280642,0.1523 0.715161,-0.3803 1.017591,-0.2705 0.44028,0.1599 0.87593,-0.2617 1.336634,-0.2375 0.873845,0.046 1.449056,-0.1408 2.329949,-0.2321 0.296174,-0.031 0.577953,0.1453 0.881252,0.1161 l -10e-7,6.2454 h -19.049995 z"
       id="path12344"
       inkscape:connector-curvature="0"
       sodipodi:nodetypes="ccccccccccccccccccccccccccc" />
    <path
       style="fill:#0053bb;fill-opacity:0.13733903;fill-rule:evenodd;stroke:none;stroke-width:0.0504901px;stroke-linecap:butt;stroke-linejoin:miter;stroke-opacity:1"
       d="m 0.297133,1231.9285 c -1.098107,0.2645 -2.352595,-0.035 -3.433933,0.097 -0.832466,0.102 -1.776137,0.5271 -2.48839,-0.2168 -0.648981,-0.6779 -1.686658,-1.2755 -2.660034,-0.9905 -0.828063,0.2426 -1.613858,0.3295 -2.247212,1.0936 -0.804518,0.9707 0.788613,1.018 0.931053,1.5716 0.235891,0.9167 -1.387697,1.8609 -1.997314,1.4056 -0.81598,-0.6094 0.208539,-1.8897 0.378992,-2.8638 0.178845,-1.022 -0.42443,-1.5258 -1.18914,-2.0226 -0.744937,-0.4841 -0.751698,-1.2957 -0.966165,-2.0697 -0.379502,-1.3697 1.143803,-0.7506 1.884988,-0.5516 1.0343,0.2775 0.925852,0.9108 1.592788,1.4575 0.755313,0.6191 1.514933,-0.4411 2.554307,-0.1414 0.972785,0.2804 1.81077,0.227 2.350767,-0.9191 0.486996,-1.0335 1.899238,-0.5264 2.86772,-0.6443 1.041914,-0.1267 1.498468,-0.9655 2.421573,-1.123 z"
       id="path12350"
       inkscape:connector-curvature="0"
       sodipodi:nodetypes="ccccccccccccccccc" />
    <path
       style="fill:#0053bb;fill-opacity:0.13733903;fill-rule:evenodd;stroke:none;stroke-width:0.0504901px;stroke-linecap:butt;stroke-linejoin:miter;stroke-opacity:1"
       d="m 0.297133,1224.8285 c -0.576206,0.3962 -1.190069,0.7506 -1.530162,1.4176 -0.41566,0.8152 -1.722266,0.3889 -2.518614,0.3994 -0.761484,0.01 -1.873764,0.6111 -2.104313,1.3404 -0.343213,1.0857 -1.175017,0.4046 -1.906488,0.3635 -0.652712,-0.037 -2.366304,0.8675 -2.148105,-0.2629 0.25319,-1.3116 -1.151751,-0.8457 -1.682331,-1.414 -0.447981,-0.4799 -0.872588,-1.0436 -1.481836,-1.1857 -1.088251,-0.2539 -0.830138,-0.9759 -0.526031,-1.7663 0.158698,-0.4125 -0.384319,-0.7363 0.181854,-1.2133 0.647764,-0.5458 1.18504,-1.5648 0.314492,-2.3855 -0.179475,-0.1692 -0.317148,-0.3739 -0.433821,-0.5914 l 13.7698,0.03 z"
       id="path12348"
       inkscape:connector-curvature="0"
       sodipodi:nodetypes="cccccccccccccc" />
    <path
       style="fill:#0053bb;fill-opacity:0.13733903;fill-rule:evenodd;stroke:none;stroke-width:0.0504901px;stroke-linecap:butt;stroke-linejoin:miter;stroke-opacity:1"
       d="m -14.093641,1219.5303 c 0.12243,0.583 -0.373145,1.2393 -0.79299,1.5516 -0.513944,0.3824 -0.900661,1.0263 -1.551561,1.1245 -0.899495,0.1357 -1.343516,-0.876 -1.534893,-1.6293 -0.09597,-0.3776 -0.58118,-0.6132 -0.38698,-1.0468 z"
       id="path12346"
       inkscape:connector-curvature="0"
       sodipodi:nodetypes="cccccc" />
    <path
       style="fill:#0053bb;fill-opacity:0.13733903;fill-rule:evenodd;stroke:none;stroke-width:0.0504901px;stroke-linecap:butt;stroke-linejoin:miter;stroke-opacity:1"
       d="m -17.188578,1225.5708 c -1.05997,-0.036 -0.117941,-1.5187 -0.573762,-2.1932 -0.608244,-0.9001 0.307303,-0.9412 1.122076,-0.6871 0.813632,0.2537 1.819595,-0.1996 1.835682,0.9742 0.01198,0.8738 -0.737317,1.219 -1.353438,1.5743 -0.249549,0.1439 -0.50799,0.2839 -0.790915,0.3191 -0.08947,0.011 -0.168979,0.015 -0.239643,0.013 z"
       id="path12104"
       inkscape:connector-curvature="0"
       sodipodi:nodetypes="cccccccc" />
    <path
       style="fill:#0053bb;fill-opacity:0.13733903;fill-rule:evenodd;stroke:none;stroke-width:0.0504901px;stroke-linecap:butt;stroke-linejoin:miter;stroke-opacity:1"
       d="m -6.359048,1233.6638 c 0.0061,0.2054 1.453751,-0.021 1.392494,-0.3933 -0.0404,-0.2455 -1.407309,-0.1015 -1.392494,0.3933 z"
       id="path12096"
       inkscape:connector-curvature="0"
       sodipodi:nodetypes="sss" />
    <path
       style="fill:#0053bb;fill-opacity:0.13733903;fill-rule:evenodd;stroke:none;stroke-width:0.0504901px;stroke-linecap:butt;stroke-linejoin:miter;stroke-opacity:1"
       d="m -9.744381,1232.612 c 0.672588,-0.4568 -0.780682,-0.7727 -0.466802,-0.2545 0.136005,0.1354 0.338347,0.3401 0.466802,0.2545 z"
       id="path12092"
       inkscape:connector-curvature="0"
       sodipodi:nodetypes="ccc" />
    <path
       style="fill:#0053bb;fill-opacity:0.13733903;fill-rule:evenodd;stroke:none;stroke-width:0.0504901px;stroke-linecap:butt;stroke-linejoin:miter;stroke-opacity:1"
       d="m 0.297132,1229.1212 c -0.639816,0.2693 -0.643244,1.061 -1.037925,1.5919 -0.33884,0.4558 -1.344521,0.9649 -0.278264,1.1035 0.447854,0.058 0.893662,-0.041 1.316189,-0.2114 z"
       id="path12088"
       inkscape:connector-curvature="0"
       sodipodi:nodetypes="csscc" />
    <path
       inkscape:connector-curvature="0"
       style="fill:#0053bb;fill-opacity:0.13733903;fill-rule:evenodd;stroke:none;stroke-width:0.0504901px;stroke-linecap:butt;stroke-linejoin:miter;stroke-opacity:1"
       d="m -3.686948,1231.7291 c 0.807013,0.01 1.886745,-0.7807 2.036173,-1.5856 0.197835,-1.0657 1.757666,-1.0048 1.53815,-1.9942 -0.208302,-0.9388 -1.526163,-0.8182 -2.296033,-0.7171 -0.856713,0.1125 -1.886039,-0.4675 -2.268515,0.551 -0.239405,0.6375 -0.915183,1.4381 -1.878682,1.1653 -1.042353,-0.2951 -1.509954,0.04 -2.5479,0.1207 -0.640266,0.05 -1.07943,1.1505 -0.739736,1.5092 0.461396,0.4873 1.517266,-0.2342 2.266742,-0.25 0.810154,-0.017 1.462522,0.2502 2.32897,0.3447 0.586628,0.064 0.898586,0.8063 1.483613,0.8526 h 0.07722 z"
       id="path12358" />
    <path
       inkscape:connector-curvature="0"
       style="fill:#0053bb;fill-opacity:0.13733903;fill-rule:evenodd;stroke:none;stroke-width:0.0504901px;stroke-linecap:butt;stroke-linejoin:miter;stroke-opacity:1"
       d="m -3.554996,1230.8151 c -0.135022,0 -0.264955,-0.01 -0.383627,-0.037 -0.786705,-0.1812 -1.5627,-0.2205 -2.311807,-0.4814 -0.811613,-0.2826 -1.656843,-0.065 -2.445441,0.1553 -0.938091,0.2627 -0.813733,-0.6324 -0.0925,-0.7567 1.074764,-0.1852 2.147575,-0.3155 3.230342,-0.3439 0.93744,-0.025 0.845291,-1.1083 1.654712,-1.3275 0.826998,-0.2239 1.885089,-0.4028 2.590309,0.06 0.52123,0.3425 -0.52336,0.9107 -0.57662,1.5619 -0.05841,0.7141 -0.936258,1.1536 -1.665366,1.1683 z"
       id="path12086" />
    <path
       inkscape:connector-curvature="0"
       style="fill:#0053bb;fill-opacity:0.13733903;fill-rule:evenodd;stroke:none;stroke-width:0.0504901px;stroke-linecap:butt;stroke-linejoin:miter;stroke-opacity:1"
       d="m -10.798017,1231.0001 c 0.04922,0 0.102328,-0.016 0.160354,-0.05 0.758938,-0.4486 0.380951,-1.8357 0.08284,-2.6074 -0.247303,-0.6402 -1.518741,-0.5086 -2.158951,-0.1877 -0.94567,0.4739 0.403688,1.5487 1.084606,1.925 0.331685,0.1833 0.486622,0.9221 0.831153,0.9201 z"
       id="path12366" />
    <path
       inkscape:connector-curvature="0"
       style="fill:#0053bb;fill-opacity:0.13733903;fill-rule:evenodd;stroke:none;stroke-width:0.0504901px;stroke-linecap:butt;stroke-linejoin:miter;stroke-opacity:1"
       d="m -11.217636,1230.0004 c -0.576822,0.011 -1.68267,-0.9765 -0.580861,-1.2833 0.987478,-0.2749 1.198971,0.9999 0.739832,1.2462 -0.04532,0.024 -0.0993,0.036 -0.158971,0.037 z"
       id="path12084" />
    <path
       style="fill:#0053bb;fill-opacity:0.13733903;fill-rule:evenodd;stroke:none;stroke-width:0.0504901px;stroke-linecap:butt;stroke-linejoin:miter;stroke-opacity:1"
       d="m -8.667075,1230.1304 c 0.638014,0.043 1.027726,-0.5363 0.188065,-0.2716 -0.209555,0.066 -0.764079,0.2332 -0.188065,0.2716 z"
       id="path12080"
       inkscape:connector-curvature="0"
       sodipodi:nodetypes="sss" />
    <path
       inkscape:connector-curvature="0"
       style="fill:#0053bb;fill-opacity:0.13733903;fill-rule:evenodd;stroke:none;stroke-width:0.0504901px;stroke-linecap:butt;stroke-linejoin:miter;stroke-opacity:1"
       d="m -3.903319,1230.0976 c 0.888286,-0.019 2.123122,-0.6407 1.42277,-1.4747 -0.880712,-1.0488 -1.692824,0.6125 -2.542281,0.9844 -1.100859,0.4819 0.699822,0.4671 0.94713,0.4859 0.05546,0 0.113164,0.01 0.172381,0 z"
       id="path12354" />
    <path
       inkscape:connector-curvature="0"
       style="fill:#0053bb;fill-opacity:0.13733903;fill-rule:evenodd;stroke:none;stroke-width:0.0504901px;stroke-linecap:butt;stroke-linejoin:miter;stroke-opacity:1"
       d="m -3.549871,1229.6052 c -0.369303,0 -0.721736,-0.2174 -0.117451,-0.5042 0.449647,-0.2134 1.066969,0.2418 0.364294,0.4689 -0.07546,0.024 -0.161616,0.036 -0.246843,0.035 z"
       id="path12078" />
    <path
       inkscape:connector-curvature="0"
       style="fill:#0053bb;fill-opacity:0.13733903;fill-rule:evenodd;stroke:none;stroke-width:0.0504901px;stroke-linecap:butt;stroke-linejoin:miter;stroke-opacity:1"
       d="m 0.297132,1222.6292 c -0.879752,0.4558 -1.917652,0.5785 -2.764432,1.0785 -0.823145,0.4861 -1.702624,0.6945 -2.64682,0.7641 -0.827508,0.061 -1.627547,0.6994 -1.964605,1.4314 -0.462645,1.0048 -1.340353,0.258 -1.813001,-0.1894 -0.589419,-0.558 -1.439171,-0.6946 -2.216038,-0.5551 -1.323159,0.2376 -1.006666,-1.1967 -0.898131,-1.968 0.128661,-0.9143 -0.05127,-1.7927 -0.10301,-2.7195 -0.01968,-0.3526 -0.333019,-0.6541 -0.540473,-0.94 l 12.935598,0.021 z"
       id="path12380" />
    <path
       style="fill:#0053bb;fill-opacity:0.13733903;fill-rule:evenodd;stroke:none;stroke-width:0.0504901px;stroke-linecap:butt;stroke-linejoin:miter;stroke-opacity:1"
       d="m -12.972449,1219.5312 c 0.609546,0.7701 0.650222,1.8256 0.408288,2.7526 -0.234232,0.8975 -0.460939,2.0006 0.04192,2.8156 0.475728,0.771 1.521286,1.0023 2.370812,1.2194 0.928746,0.2373 1.645271,1.472 2.682024,1.042 0.828721,-0.3438 1.726986,-0.4028 2.495771,-0.9049 0.826617,-0.5398 1.769966,-0.8246 2.555348,-1.4575 0.796236,-0.6417 1.779181,-1.0183 2.715419,-1.4268 l -0.03992,-4.0548 z"
       id="path12072"
       inkscape:connector-curvature="0"
       sodipodi:nodetypes="cccccccccc" />
    <path
       style="fill:#0053bb;fill-opacity:0.13733903;fill-rule:evenodd;stroke:none;stroke-width:0.0504901px;stroke-linecap:butt;stroke-linejoin:miter;stroke-opacity:1"
       d="m -18.752863,1225.0438 c 0.226899,-0.5835 0.320345,-1.1761 0,-1.7522 z"
       id="path12068"
       inkscape:connector-curvature="0"
       sodipodi:nodetypes="ccc" />
    <path
       style="fill:#0053bb;fill-opacity:0.13733903;fill-rule:evenodd;stroke:none;stroke-width:0.0504901px;stroke-linecap:butt;stroke-linejoin:miter;stroke-opacity:1"
       d="m 0.297132,1220.0404 c -1.109998,0.3626 -2.189968,0.8285 -3.400654,0.8315 -1.56128,0 -2.8221,0.2366 -4.169383,1.1136 -0.835172,0.5436 -2.337336,0.2871 -2.980641,-0.4236 -0.535822,-0.592 -0.930209,-1.2629 -1.164187,-2.0307 l 11.703953,0.021 z"
       id="path12372"
       inkscape:connector-curvature="0"
       sodipodi:nodetypes="ccccccc" />
    <path
       style="fill:#0053bb;fill-opacity:0.13733903;fill-rule:evenodd;stroke:none;stroke-width:0.0504901px;stroke-linecap:butt;stroke-linejoin:miter;stroke-opacity:1"
       d="m -11.894059,1219.5312 c 0.527884,0.5763 0.733359,1.4002 0.443289,2.1384 -0.483179,1.2295 1.260229,0.7205 1.931633,0.8052 0.279163,0.035 0.561296,0.052 0.840626,0.048 0.614519,-0.01 1.215795,-0.1171 1.743765,-0.3483 0.90361,-0.3959 1.668734,-0.8044 2.705301,-0.6852 0.940711,0.1082 1.778297,0.1161 2.691092,0.2309 0.75037,0.094 1.330701,-0.5329 1.835485,-1.035 l -0.01091,-1.133 z"
       id="path12370"
       inkscape:connector-curvature="0"
       sodipodi:nodetypes="cccccccccc" />
    <path
       inkscape:connector-curvature="0"
       style="fill:#0053bb;fill-opacity:0.13733903;fill-rule:evenodd;stroke:none;stroke-width:0.0504901px;stroke-linecap:butt;stroke-linejoin:miter;stroke-opacity:1"
       d="m -10.7706,1222.2689 c -0.666588,-0.018 -0.303127,-1.2046 0.30907,-0.6031 0.283531,0.2786 0.502204,0.4042 -0.06825,0.568 -0.09187,0.026 -0.171866,0.037 -0.240824,0.035 z"
       id="path12066" />
    <path
       style="fill:#0053bb;fill-opacity:0.13733903;fill-rule:evenodd;stroke:none;stroke-width:0.0504901px;stroke-linecap:butt;stroke-linejoin:miter;stroke-opacity:1"
       d="m -5.860592,1219.5312 c -0.721317,0.7936 -1.612143,2.2869 -2.715784,1.9749 -1.16206,-0.3285 -1.422929,-1.913 -1.450678,-1.9747 z"
       id="path12376"
       inkscape:connector-curvature="0"
       sodipodi:nodetypes="cccc" />
    <path
       style="fill:#0053bb;fill-opacity:0.13733903;fill-rule:evenodd;stroke:none;stroke-width:0.0504901px;stroke-linecap:butt;stroke-linejoin:miter;stroke-opacity:1"
       d="m -10.856594,1219.5314 c 0.448066,0.7363 0.557284,1.5425 1.403537,2.0693 0.758337,0.4722 1.607125,0.576 2.300168,-0.034 0.906493,-0.7977 1.933526,-1.4945 3.152382,-1.7211 0.463323,-0.086 0.919207,-0.2076 1.378144,-0.3145 z"
       id="path12062"
       inkscape:connector-curvature="0"
       sodipodi:nodetypes="cccccc" />
    <path
       style="fill:#0053bb;fill-opacity:0.13733903;fill-rule:evenodd;stroke:none;stroke-width:0.0504901px;stroke-linecap:butt;stroke-linejoin:miter;stroke-opacity:1"
       d="m -14.84038,1219.5312 c 0.21427,0.6059 -0.121459,1.0527 -0.663998,1.4494 -0.720564,0.5269 -1.517312,0.2911 -1.853576,-0.4273 -0.151744,-0.3242 -0.242622,-0.6714 -0.291075,-1.0221 z"
       id="path12388"
       inkscape:connector-curvature="0"
       sodipodi:nodetypes="ccccc" />
    <path
       style="fill:#0053bb;fill-opacity:0.13733903;fill-rule:evenodd;stroke:none;stroke-width:0.0504901px;stroke-linecap:butt;stroke-linejoin:miter;stroke-opacity:1"
       d="m -17.912732,1219.5312 c 0.256391,0.7748 0.179764,1.929 1.149337,2.126 0.895157,0.1819 1.855595,-0.7208 2.264101,-1.5136 0.106033,-0.2058 0.02802,-0.411 0.06749,-0.6124 z"
       id="path12060"
       inkscape:connector-curvature="0"
       sodipodi:nodetypes="ccccc" />
    <path
       style="fill:#0053bb;fill-opacity:0.13733903;fill-rule:evenodd;stroke:none;stroke-width:0.0504901px;stroke-linecap:butt;stroke-linejoin:miter;stroke-opacity:1"
       d="m -9.256121,1219.5312 c 0.416276,0.4824 0.135594,1.8965 1.020041,1.6827 0.75978,-0.1837 0.858848,-1.1132 1.272245,-1.6827 z"
       id="path4473"
       inkscape:connector-curvature="0"
       sodipodi:nodetypes="cscc" />
    <path
       inkscape:connector-curvature="0"
       style="fill:#0053bb;fill-opacity:0.13733903;fill-rule:evenodd;stroke:none;stroke-width:0.0504901px;stroke-linecap:butt;stroke-linejoin:miter;stroke-opacity:1"
       d="m -11.332431,1234.6585 c 0.583674,-0.013 2.052068,-0.4965 1.453636,-1.1838 -0.607431,-0.6976 -1.67811,-0.1471 -1.606199,0.7854 0.0096,0.1242 0.02823,0.4012 0.152563,0.3984 z"
       id="path12362" />
    <path
       inkscape:connector-curvature="0"
       style="fill:#0053bb;fill-opacity:0.13733903;fill-rule:evenodd;stroke:none;stroke-width:0.0504901px;stroke-linecap:butt;stroke-linejoin:miter;stroke-opacity:1"
       d="m -11.071586,1234.2339 c -0.391979,0.037 1.215209,-1.1021 0.913304,-0.3603 -0.03554,0.087 -0.198294,0.1982 -0.240233,0.2206 -0.04202,0.022 -0.482931,0.087 -0.482931,0.087 -0.08766,0.033 -0.14959,0.049 -0.19014,0.053 z"
       id="path12098" />
    <path
       style="fill:#0053bb;fill-opacity:0.13733903;fill-rule:evenodd;stroke:none;stroke-width:0.0504901px;stroke-linecap:butt;stroke-linejoin:miter;stroke-opacity:1"
       d="m 0.297117,1232.8948 c -0.64168,0.2879 -1.392632,0.1431 -2.052206,0.4562 -0.608763,0.2891 -1.011535,0.053 -1.762975,0.1167 -0.883375,0.074 -1.941001,0.5786 -2.800036,0.7013 -0.909579,0.1299 -1.237227,0.075 -1.104161,-1.0136 0.04444,-0.3635 -0.200291,-0.6767 0.03088,-0.8613 0.357479,-0.2854 0.481422,-0.839 -0.236425,-0.9499 -0.646872,-0.1 -1.413308,1.138 -1.375658,1.9011 0.03515,0.7125 -0.440261,2.0742 -1.208993,2.1334 -0.677889,0.052 -0.970166,0.7812 -1.502693,0.2412 -0.695489,-0.7053 -0.815748,-2.0179 -0.537423,-2.9844 0.230428,-0.8001 -0.273875,-0.9255 -0.871016,-1.3015 -0.75588,-0.4758 -0.392158,-1.9206 -0.624202,-2.7991 -0.153415,-1.2723 -0.952519,-1.2974 -1.169612,-0.03 -0.103825,0.606 -0.09396,1.6663 -1.010816,0.8165 -0.534227,-0.4951 -0.887761,-1.1357 -1.433535,-1.2697 -1.174092,-0.2883 -0.806335,-1.2672 -1.39109,-1.9229 l -1.9e-5,12.4426 19.049995,0.01 z"
       id="path12340"
       inkscape:connector-curvature="0"
       sodipodi:nodetypes="cccccccccccccccccccc" />
    <path
       style="fill:#0053bb;fill-opacity:0.13733903;fill-rule:evenodd;stroke:none;stroke-width:0.0504901px;stroke-linecap:butt;stroke-linejoin:miter;stroke-opacity:1"
       d="m -18.752848,1227.7721 c 0.526446,0.3782 1.110765,0.5615 1.653041,0.9191 0.719186,0.4743 1.118267,1.4437 1.907173,1.7555 0.979883,0.3873 -0.04271,-1.6058 0.610682,-2.0564 0.839874,-0.5791 0.588839,0.6005 0.631869,1.1035 0.08166,0.9546 -0.795228,2.0233 0.480366,2.4814 0.396137,0.1422 0.932924,-0.097 0.738545,0.8387 -0.235919,1.1358 0.16405,1.573 0.402052,2.4936 0.310269,1.2002 1.647579,0.762 2.178952,0.4494 0.501205,-0.2949 0.7099,-0.2434 0.968352,-0.776 0.270792,-0.5581 0.505623,-1.5157 0.895968,-2.0377 0.586334,-0.784 0.498075,0.4773 0.386813,0.9247 -0.208332,0.8376 1.206871,0.61 1.760999,0.564 0.839142,-0.07 1.496714,-0.5986 2.363905,-0.5108 0.701233,0.071 1.350215,0.081 1.981217,-0.1348 0.686754,-0.2344 1.38929,-0.382 2.090031,-0.5052 l 1.5e-5,5.2978 -19.049995,3e-4 z"
       id="path12106"
       inkscape:connector-curvature="0"
       sodipodi:nodetypes="ccccccccccccccccccc" />
    <path
       style="fill:#0053bb;fill-opacity:0.13733903;fill-rule:evenodd;stroke:none;stroke-width:0.0504901px;stroke-linecap:butt;stroke-linejoin:miter;stroke-opacity:1"
       d="m 0.297132,1233.667 c -0.682063,-0.038 -1.340698,0.094 -1.942388,0.4307 -0.61478,0.3436 -1.375892,-0.011 -2.052144,0.2271 -0.520337,0.1835 -1.056855,0.031 -1.589829,0.2612 -0.591978,0.2551 -0.889709,-0.028 -1.5429,0.078 -0.705497,0.1148 -1.332244,-0.2516 -1.396514,-0.9125 -0.06693,-0.6883 -0.541457,0.3888 -0.588149,0.7132 -0.118944,0.8263 -0.815878,1.2436 -1.430281,1.5494 -0.729999,0.3634 -1.568713,0.8313 -2.181723,-0.1268 -0.514091,-0.8036 -0.674562,-1.7826 -1.047645,-2.6458 -0.373948,-0.8651 -1.133531,-1.6496 -1.775295,-2.3058 -0.501293,-0.5125 -0.922465,-1.0668 -1.561559,-1.4367 -0.633649,-0.3667 -1.149345,-1.2387 -1.941568,-1.2412 v 10.3211 H 0.297132 Z"
       id="path12112"
       inkscape:connector-curvature="0"
       sodipodi:nodetypes="cccccccccccccccc" />
    <path
       style="fill:#0053bb;fill-opacity:0.13733903;fill-rule:evenodd;stroke:none;stroke-width:0.0504901px;stroke-linecap:butt;stroke-linejoin:miter;stroke-opacity:1"
       d="m -18.752863,1228.6591 c 0.908144,0.13 1.580172,0.8378 2.236452,1.4176 1.046942,0.925 2.141179,1.9134 2.723458,3.2094 0.469398,1.0449 0.623577,2.2818 1.369994,3.1591 0.783112,0.9203 2.020966,-0.3593 2.90307,-0.6813 0.75998,-0.2774 0.726221,-1.8792 1.183665,-1.471 0.793308,0.708 1.332585,0.5953 2.141315,0.6098 0.897297,0.016 1.738785,-0.2781 2.630739,-0.3823 0.812176,-0.095 1.799409,0.1503 2.507602,-0.3841 0.409484,-0.309 0.863463,-0.1106 1.3537,-0.083 v 4.5256 h -19.049995 z"
       id="path12320"
       inkscape:connector-curvature="0"
       sodipodi:nodetypes="ccccccccccccc" />
    <path
       style="fill:#0053bb;fill-opacity:0.13733903;fill-rule:evenodd;stroke:none;stroke-width:0.0504901px;stroke-linecap:butt;stroke-linejoin:miter;stroke-opacity:1"
       d="m 0.297127,1234.4397 c -0.857591,-0.4103 -1.473708,0.1473 -2.266939,0.2436 -0.843706,0.1025 -1.610121,0.253 -2.43252,0.2965 -0.866179,0.046 -1.74689,0.1242 -2.655984,0.1554 -0.615024,0.021 -1.132165,-0.6653 -1.469808,-0.4476 -0.466926,0.3009 -0.305992,1.0207 -0.793694,1.2723 -0.702388,0.3624 -1.408386,0.9308 -2.238821,1.0495 -1.115736,0.1595 -1.380489,-1.1112 -1.707893,-1.831 -0.497651,-1.0942 -0.677596,-2.2602 -1.599666,-3.14 -0.877203,-0.8371 -1.60545,-1.7213 -2.608672,-2.4193 -0.397343,-0.2765 -0.788916,-0.4957 -1.275998,-0.5845 l 5e-6,9.5443 H 0.297132 Z"
       id="path12316"
       inkscape:connector-curvature="0"
       sodipodi:nodetypes="cccccccccccccc" />
    <path
       style="fill:#0053bb;fill-opacity:0.13733903;fill-rule:evenodd;stroke:none;stroke-width:0.0504901px;stroke-linecap:butt;stroke-linejoin:miter;stroke-opacity:1"
       d="m -18.752868,1229.4222 c 1.036749,0.3757 1.91618,1.2178 2.652789,2.0064 0.762291,0.816 1.55486,1.2429 1.919418,2.3343 0.363182,1.0873 0.67711,1.8408 1.206924,2.857 0.46046,0.8832 1.782573,0.5233 2.657489,0.5186 0.701713,0 1.204207,-0.6145 1.743761,-0.9636 0.606834,-0.3925 1.358854,-0.573 2.075613,-0.5961 0.732271,-0.024 1.436886,0.2657 2.193573,0.09 0.631051,-0.1464 1.133395,-0.5653 1.84819,-0.4761 0.775287,0.097 1.516069,-0.3744 2.276694,-0.4976 0.165937,-0.027 0.329787,0.054 0.475544,0.1309 l 5e-6,3.7529 -19.049995,-0.01 z"
       id="path12114"
       inkscape:connector-curvature="0"
       sodipodi:nodetypes="cccccccccccccc" />
    <path
       style="fill:#0053bb;fill-opacity:0.13733903;fill-rule:evenodd;stroke:none;stroke-width:0.0504901px;stroke-linecap:butt;stroke-linejoin:miter;stroke-opacity:1"
       d="m 0.297132,1236.634 c -1.307843,-0.5688 -2.87625,-0.7579 -4.213397,-0.1929 -0.924514,0.3907 -1.871922,0.092 -2.792542,-0.1 -1.523904,-0.3173 -2.422873,1.7047 -3.960979,1.3354 -1.059048,-0.2543 -2.436173,-0.1039 -3.108019,-1.1369 -0.472036,-0.7259 -1.438617,-0.9646 -1.793158,-1.6859 -0.466264,-0.9486 -0.521194,-2.0305 -1.041985,-2.9541 -0.483889,-0.8582 -1.224934,-1.59 -2.139915,-1.9625 v 8.6338 l 19.049995,0.01 z"
       id="path12176"
       inkscape:connector-curvature="0"
       sodipodi:nodetypes="ccccccccccc" />
    <path
       style="fill:#0053bb;fill-opacity:0.13733903;fill-rule:evenodd;stroke:none;stroke-width:0.0504901px;stroke-linecap:butt;stroke-linejoin:miter;stroke-opacity:1"
       d="m -18.752863,1230.7682 c 0.813536,0.044 1.121973,0.8974 1.482825,1.4877 0.400658,0.6555 0.808074,1.2946 1.195548,1.9501 0.448378,0.7585 0.364337,1.8335 1.021278,2.4508 0.825053,0.7753 2.022597,0.6306 3.01073,1.1893 0.556303,0.3146 1.228347,0.2238 1.627299,0.7328 h -8.33768 z"
       id="path12312"
       inkscape:connector-curvature="0"
       sodipodi:nodetypes="cccccccc" />
    <path
       style="fill:#0053bb;fill-opacity:0.13733903;fill-rule:evenodd;stroke:none;stroke-width:0.0504901px;stroke-linecap:butt;stroke-linejoin:miter;stroke-opacity:1"
       d="m -14.89669,1234.9365 c 1.083244,0.2543 0.717931,-1.2782 0.126377,-1.7298 -0.249004,-0.19 -1.36368,-1.258 -0.817737,-0.3525 0.375201,0.6223 -0.0038,1.9191 0.69136,2.0823 z"
       id="path12102"
       inkscape:connector-curvature="0"
       sodipodi:nodetypes="ssss" />
  </g>
</svg>
